<?xml version="1.0" encoding="UTF-8"?>
<svg id="Capa_2" data-name="Capa 2" xmlns="http://www.w3.org/2000/svg" viewBox="0 0 503.68 456.25">
  <defs>
    <style>
      .cls-1 {
        fill: #bcff31;
        stroke-width: 0px;
      }
    </style>
  </defs>
  <g id="Capa_1-2" data-name="Capa 1">
    <path class="cls-1" d="m118.11,156.98c-25.57,4.41-49,11.71-70.47,24.41-5.87,3.47-11.44,7.81-16.23,12.66-12.56,12.73-13.99,27.64-1.77,40.75,9.22,9.9,21.01,17.55,32.23,25.37,6.15,4.28,12.2,8.15,7.98,16.28-4.23,8.16-11.53,6.89-17.66,2.41-13.11-9.56-27.57-18.12-38.24-30-20.76-23.11-17.82-51.58,5.26-72.42,20.8-18.77,46.37-27.94,72.77-35.26,6.91-1.92,13.89-3.55,20.92-5.33-1.73-14.18-4.86-27.49-4.6-40.73.38-19.42.58-39.48,5.54-58.02C122.08,6.25,148.17-6.99,178.35,3.6c16.12,5.66,30.88,15.63,45.49,24.86,2.9,1.83,4.43,10.07,2.86,13.77-2.63,6.24-9.09,6.25-14.89,2.68-9.87-6.07-19.22-13.26-29.66-18.08-28.18-13.02-45.55-3.86-51.44,26.52-5.07,26.15-1.55,51.94,3.7,78.08,21.02-1.81,41.54-3.22,61.92-5.66,3.46-.41,6.83-4.9,9.48-8.13,24.95-30.43,51.63-59.22,84.27-81.45,14.54-9.91,30.38-18.97,46.92-24.68,37.59-12.98,67.59,6.11,71.82,45.54,1.75,16.32-1.07,33.19-2.36,49.76-.53,6.87-4.48,11.97-12.19,10.81-8.57-1.29-8.97-7.8-8.44-14.96,1.06-14.05,3.23-28.26,2.08-42.17-2.24-27.23-18.64-37.38-44.74-28.93-23.93,7.75-44.09,22.19-62.52,38.7-15.92,14.25-30.48,30.02-45.54,45.23-2.46,2.49-4.38,5.51-7.62,9.65,17.65,1.02,33.77,1.57,49.8,2.96,50.79,4.4,101.18,11.9,148.08,32.72,20.58,9.13,40.82,21.1,57.86,35.7,28.68,24.56,26.72,57.28-3.04,80.68-11.25,8.85-24.64,15.07-37.38,21.87-5.88,3.14-12.49,3.17-15.71-4.19-3.4-7.79,1.34-11.83,7.92-15.19,9.98-5.1,20.3-9.94,29.25-16.55,23.29-17.2,24.49-36.26,1.76-54.33-14.27-11.35-30.82-20.56-47.59-27.92-42.26-18.57-87.38-26.47-133.03-30.86-22.36-2.15-44.92-2.54-67.4-2.79-4.5-.05-10.72,2.94-13.28,6.56-13.41,18.93-26.15,38.36-38.47,58.02-2.07,3.3-2.57,9.29-1.04,12.86,25.68,60.22,58.88,115.78,104.59,163.1,11.28,11.67,24.55,21.44,37.06,31.88,3.04,2.53,6.62,4.47,10.1,6.39,35.1,19.35,56.81,7.95,60.3-31.89,3.16-36.06-3.27-71.04-14.54-104.98-8.45-25.42-19.16-50.09-28.91-75.07-1.05-2.7-2.37-5.3-3.62-7.92-3.13-6.57-4.01-13.22,3.63-16.79,7.44-3.47,12.16.9,15.37,7.69,19.61,41.46,37.19,83.83,44.14,129.33,3.79,24.84,2.95,50.43,3.56,75.7.14,5.62-1.98,11.42-3.74,16.93-9.67,30.23-33.1,43-63.67,34.78-21.96-5.91-39.97-18.76-56.67-33.5-43.36-38.26-74.96-85.48-102.36-135.78-7.1-13.03-13.54-26.42-20.45-39.96-1.01.65-2.19.97-2.56,1.7-19.85,39.44-36.33,80.04-39.13,124.73-.65,10.33.37,21.14,2.78,31.21,3.88,16.2,16,24.9,31.79,20.15,17.75-5.34,34.19-14.98,51.39-22.29,4.62-1.96,10.41-4.01,14.85-2.85,6.4,1.66,7.56,11.79,1.72,16.21-21.04,15.93-43.6,29.19-70.81,30.61-24.72,1.29-42.47-11.9-49.32-35.82-6.27-21.88-4.18-43.93.02-65.81,7.88-41.01,24.06-79.02,43.12-115.86,3.47-6.7,3.98-12.3,1.31-19.41-6.11-16.23-11.24-32.82-17.07-50.15Zm33.86,35.77c10.43-15.55,19.62-29.26,30.18-45-15.45,1.79-28.64,3.32-42.9,4.97,4.3,13.52,8.09,25.45,12.72,40.02Z"/>
  </g>
</svg>